<svg id="svg" xmlns="http://www.w3.org/2000/svg" xmlns:xlink="http://www.w3.org/1999/xlink" width="400" height="400" viewBox="0, 0, 400,400"><g id="svgg"><path id="path0" d="M237.891 0.745 C 233.511 2.557,232.931 3.834,219.491 41.257 L 212.109 61.810 209.440 61.314 C 194.482 58.533,171.936 44.390,161.211 31.060 C 155.005 23.345,149.463 21.463,142.957 24.858 C 121.811 35.894,158.516 71.637,205.246 85.515 L 214.392 88.231 234.540 108.368 L 254.688 128.504 254.688 144.718 L 254.688 160.931 236.523 170.114 L 218.359 179.297 167.578 179.713 C 117.016 180.127,116.773 180.137,111.328 181.950 C 100.641 185.510,91.885 191.287,86.001 198.660 L 82.620 202.897 74.318 203.379 C 44.698 205.097,27.378 223.975,27.353 254.569 C 27.338 272.924,29.022 274.648,46.875 274.543 C 53.105 274.506,59.521 274.095,61.133 273.629 C 64.920 272.534,65.621 271.105,53.320 289.562 L 42.578 305.681 42.578 348.739 C 42.578 396.825,42.369 394.928,48.072 398.453 C 51.938 400.842,59.174 400.409,62.173 397.607 C 66.244 393.804,66.406 392.862,66.406 373.101 L 66.406 354.717 68.555 354.259 C 94.643 348.697,120.562 328.812,130.200 306.967 C 131.179 304.749,131.915 303.995,132.777 304.329 C 147.799 310.146,189.481 309.211,206.512 302.676 C 207.666 302.233,207.794 306.170,207.989 347.958 L 208.203 393.725 211.077 396.598 C 218.604 404.124,230.459 399.488,231.759 388.510 C 232.088 385.730,237.740 373.229,253.047 341.423 L 273.886 298.121 279.813 296.043 C 297.098 289.982,301.501 283.933,314.709 248.095 L 322.465 227.049 327.444 226.047 C 352.072 221.088,372.593 195.781,372.640 170.313 C 372.663 157.631,369.906 156.250,344.562 156.250 L 325.781 156.250 325.800 141.602 L 325.820 126.953 337.011 113.896 C 358.045 89.355,364.804 76.393,364.829 60.547 C 364.859 41.755,342.955 41.755,340.637 60.547 C 339.224 71.999,333.476 81.275,315.040 101.855 L 312.329 104.881 303.821 96.399 C 299.141 91.734,295.313 87.634,295.313 87.287 C 295.313 86.940,302.168 70.450,310.547 50.642 C 326.548 12.814,326.991 11.397,324.413 6.266 C 320.830 -0.866,309.851 -2.324,304.573 3.631 C 303.868 4.427,294.245 26.523,283.190 52.734 C 272.135 78.945,262.858 100.647,262.576 100.961 C 262.294 101.275,255.698 95.122,247.918 87.289 L 233.774 73.047 244.228 44.531 C 256.197 11.883,256.237 11.728,254.042 6.767 C 251.475 0.963,244.053 -1.804,237.891 0.745 M301.563 142.369 L 301.563 156.250 290.234 156.250 L 278.906 156.250 278.906 140.830 L 278.906 125.410 281.810 118.551 L 284.714 111.693 293.138 120.091 L 301.563 128.489 301.563 142.369 M311.299 302.405 C 307.040 306.763,297.256 313.545,293.050 315.055 C 290.607 315.931,289.836 317.108,284.249 328.485 C 276.921 343.407,277.036 341.541,283.008 348.575 C 285.693 351.738,289.261 356.002,290.936 358.049 L 293.982 361.773 294.632 376.599 C 295.491 396.195,297.066 399.283,306.471 399.812 C 318.848 400.508,319.739 397.770,318.365 363.274 C 317.774 348.454,317.042 327.803,316.737 317.383 C 316.432 306.963,315.956 298.438,315.679 298.438 C 315.402 298.438,313.431 300.223,311.299 302.405 " stroke="none" fill="#4787c7" fill-rule="evenodd"></path></g></svg>