<?xml version="1.0" standalone="no"?>
<!DOCTYPE svg PUBLIC "-//W3C//DTD SVG 20010904//EN"
 "http://www.w3.org/TR/2001/REC-SVG-20010904/DTD/svg10.dtd">
<svg version="1.0" xmlns="http://www.w3.org/2000/svg"
 width="520.000000pt" height="520.000000pt" viewBox="0 0 520.000000 520.000000"
 preserveAspectRatio="xMidYMid meet">
<metadata>
Created by potrace 1.14, written by Peter Selinger 2001-2017
</metadata>
<g transform="translate(0.000000,520.000000) scale(0.100000,-0.100000)"
fill="#000000" stroke="none">
<path d="M2355 5060 c-28 -31 -24 -127 10 -220 15 -41 32 -90 39 -107 6 -18
13 -33 16 -33 3 0 48 26 100 58 107 64 127 92 137 188 8 75 -10 70 -57 -16
-19 -35 -40 -65 -46 -67 -16 -5 -94 67 -126 116 -15 25 -28 58 -28 73 0 33
-19 37 -45 8z"/>
<path d="M1650 4935 c-20 -24 -6 -90 29 -134 43 -54 88 -80 163 -93 71 -12
115 -45 150 -113 19 -37 98 -257 185 -517 l36 -108 -16 -67 c-9 -38 -35 -104
-56 -148 -71 -143 -102 -165 -360 -250 l-205 -68 -75 22 c-107 31 -253 102
-279 136 -32 40 -28 70 18 123 21 26 56 83 76 127 48 103 75 138 146 186 61
42 65 48 46 67 -22 22 -91 14 -140 -17 -49 -31 -72 -59 -111 -136 -14 -27 -57
-85 -96 -129 -39 -43 -71 -83 -71 -87 0 -21 -31 -7 -45 21 -25 49 -18 101 26
202 62 140 70 167 59 189 -25 46 -82 10 -120 -75 -24 -53 -34 -87 -56 -195 -5
-23 -8 -20 -35 30 -37 67 -62 94 -83 86 -22 -9 -21 -74 3 -136 29 -76 137
-227 236 -327 73 -75 106 -100 175 -134 47 -24 107 -50 134 -60 l50 -16 -45
-25 -44 -25 -90 50 c-155 84 -237 149 -304 240 -23 31 -48 55 -54 53 -6 -2
-16 -18 -21 -35 -8 -29 -4 -39 36 -100 24 -37 50 -82 57 -100 13 -31 44 -63
87 -88 18 -11 18 -12 1 -32 -10 -11 -45 -34 -78 -51 -64 -35 -72 -51 -37 -75
32 -23 84 -19 153 10 86 37 98 38 143 15 53 -27 72 -26 130 3 26 14 72 36 102
49 30 14 81 45 114 70 63 48 188 120 223 129 20 5 23 0 34 -62 l12 -68 66 54
c36 30 107 74 157 99 68 32 103 57 137 95 82 91 136 239 137 373 0 90 37 159
104 194 16 8 72 21 125 29 53 8 143 27 201 43 58 17 124 35 147 41 32 8 47 19
59 41 8 17 13 38 9 46 -9 24 -115 11 -265 -32 -166 -47 -307 -64 -381 -44 -47
12 -56 19 -73 52 -44 91 3 149 211 256 123 63 188 105 321 207 38 30 41 58 7
80 -34 22 -53 14 -252 -117 -161 -107 -248 -149 -302 -149 -37 0 -78 33 -96
77 -14 32 -14 39 1 61 9 13 29 31 46 40 114 63 136 103 68 123 -34 10 -50 9
-98 -5 -130 -39 -168 -46 -217 -40 -67 8 -144 44 -197 92 -68 62 -96 73 -118
47z"/>
<path d="M2960 4604 c-19 -14 -68 -41 -107 -61 -87 -43 -103 -37 -103 36 l0
46 -26 -33 c-16 -20 -61 -50 -118 -79 -50 -25 -93 -47 -95 -49 -4 -4 88 -152
100 -160 8 -4 228 52 237 61 2 2 -1 12 -7 23 -9 16 -6 21 17 31 48 22 124 84
153 124 56 77 24 115 -51 61z"/>
<path d="M2797 4106 c-69 -17 -86 -24 -81 -36 17 -40 23 -121 14 -194 -26
-213 -190 -377 -407 -408 -67 -9 -85 -15 -97 -33 -10 -15 -29 -25 -59 -29 -40
-6 -188 -83 -202 -105 -3 -6 8 -8 27 -5 18 2 121 13 228 25 107 11 215 25 240
31 61 15 159 59 214 98 90 61 184 201 216 319 10 38 16 44 75 72 66 31 125 80
125 104 0 39 -45 38 -127 -4 -23 -11 -47 -21 -53 -21 -6 0 -10 39 -10 105 0
58 -3 104 -7 104 -5 -1 -47 -11 -96 -23z"/>
<path d="M1689 3272 c-41 -27 -87 -63 -102 -81 -19 -23 -61 -48 -136 -81 -185
-82 -403 -168 -470 -185 -93 -24 -133 -47 -159 -93 -30 -54 -28 -98 6 -153 51
-79 49 -79 165 -72 120 7 236 -8 349 -43 76 -24 78 -26 78 -57 1 -93 57 -283
105 -350 15 -21 15 -18 10 48 l-6 70 20 -72 c32 -118 78 -215 126 -268 44 -50
44 -50 45 -21 l0 29 31 -43 c95 -132 113 -238 105 -620 -9 -392 -32 -508 -119
-607 -114 -129 -113 -133 37 -133 61 0 116 4 122 8 25 16 163 537 219 827 66
337 77 365 189 475 107 105 125 114 78 42 -36 -56 -118 -231 -110 -236 3 -3
301 -40 458 -57 226 -25 472 -4 834 71 54 11 101 20 104 20 4 0 -17 24 -45 53
-70 72 -126 155 -161 240 -49 119 -47 139 4 49 68 -118 180 -233 365 -373 168
-127 240 -198 287 -282 64 -112 102 -300 102 -506 l0 -124 -46 -80 c-51 -88
-51 -104 2 -119 34 -10 151 -2 196 14 l31 11 -8 206 c-4 113 -10 328 -14 476
l-6 270 -57 57 c-80 81 -149 219 -156 316 -4 67 -3 75 41 169 58 125 67 160
67 258 0 88 -18 173 -51 237 -18 35 -19 40 -4 34 9 -3 21 -6 26 -6 18 0 97
-80 110 -111 l12 -31 18 43 c10 24 18 58 18 75 1 41 -48 116 -100 154 -58 42
-85 47 -112 22 -41 -37 -62 -36 -114 3 -27 20 -63 43 -82 51 -44 18 -154 18
-304 -2 -180 -24 -731 -14 -864 15 -168 37 -221 37 -372 1 -99 -24 -147 -31
-183 -27 -102 12 -258 120 -373 257 -33 39 -70 78 -82 86 -19 12 -23 24 -23
67 0 64 -10 127 -20 127 -4 0 -41 -22 -81 -48z m-256 -321 c15 -15 -21 -63
-56 -75 -19 -7 -32 -5 -51 8 -32 20 -32 26 -4 61 18 24 26 27 61 22 22 -3 44
-10 50 -16z m-520 -146 c8 -18 -21 -51 -51 -60 -22 -6 -23 -5 -12 17 15 29 41
58 50 58 5 0 10 -7 13 -15z"/>
<path d="M3656 1593 c-77 -24 -78 -25 -55 -41 117 -79 185 -168 176 -229 -14
-85 -109 -245 -220 -371 -57 -64 -68 -82 -86 -151 -30 -112 -31 -111 32 -111
50 0 53 1 82 44 22 33 39 46 62 51 26 5 34 12 42 41 10 37 257 456 297 503 40
48 29 84 -46 146 -39 33 -167 122 -195 137 -5 2 -45 -6 -89 -19z"/>
<path d="M2433 1543 c3 -4 50 -125 105 -268 115 -299 150 -381 186 -428 33
-42 33 -76 1 -139 -14 -27 -25 -54 -25 -59 0 -14 64 -39 100 -39 17 0 57 14
90 30 53 27 60 34 60 60 0 18 -44 118 -111 252 l-111 222 -26 165 c-14 91 -26
167 -27 168 0 1 -46 9 -100 18 -55 8 -111 18 -123 21 -13 2 -22 1 -19 -3z"/>
</g>
</svg>
