<?xml version="1.0" encoding="UTF-8"?>
<svg viewBox="0 0 598.51843 397.77106" xmlns="http://www.w3.org/2000/svg" xmlns:xlink="http://www.w3.org/1999/xlink">
 <defs>
  <linearGradient id="b">
   <stop stop-color="#c87137" offset="0"/>
   <stop stop-color="#a05a2c" offset=".62952"/>
   <stop stop-color="#6c3d1e" offset="1"/>
  </linearGradient>
  <linearGradient id="f">
   <stop stop-color="#c87137" offset="0"/>
   <stop stop-color="#a05a2c" offset=".3867"/>
   <stop stop-color="#6c3d1e" offset="1"/>
  </linearGradient>
  <linearGradient id="a">
   <stop stop-color="#c87137" offset="0"/>
   <stop stop-color="#a05a2c" offset=".40063"/>
   <stop stop-color="#6c3d1e" offset="1"/>
  </linearGradient>
  <linearGradient id="c">
   <stop stop-color="#c87137" offset="0"/>
   <stop stop-color="#a05a2c" offset=".5006"/>
   <stop stop-color="#6c3d1e" offset="1"/>
  </linearGradient>
  <linearGradient id="g">
   <stop stop-color="#c87137" offset="0"/>
   <stop stop-color="#a05a2c" offset=".39491"/>
   <stop stop-color="#6c3d1e" offset="1"/>
  </linearGradient>
  <linearGradient id="w" x1="13.272" x2="67.704" y1="758.22" y2="740.65" gradientUnits="userSpaceOnUse" xlink:href="#b"/>
  <linearGradient id="v" x1="-472.61" x2="-445.06" y1="346.21" y2="393.66" gradientTransform="matrix(.4649 -.0037 .0037 .4649 261.04 410.96)" gradientUnits="userSpaceOnUse" xlink:href="#b"/>
  <linearGradient id="u" x1="-430.23" x2="-378.19" y1="395.24" y2="435.66" gradientTransform="matrix(.4649 -.0037 .0037 .4649 261.04 410.96)" gradientUnits="userSpaceOnUse" xlink:href="#f"/>
  <linearGradient id="t" x1="214.52" x2="359.96" y1="373.02" y2="418.72" gradientUnits="userSpaceOnUse" xlink:href="#a"/>
  <linearGradient id="s" x1="-239.63" x2="-182.51" y1="498.22" y2="490.26" gradientUnits="userSpaceOnUse" xlink:href="#c"/>
  <linearGradient id="r" x1="-362.76" x2="-343.78" y1="90.066" y2="169.42" gradientTransform="matrix(.43846 .15461 -.15461 .43846 105.46 447.69)" gradientUnits="userSpaceOnUse" xlink:href="#g"/>
  <linearGradient id="q" x1="-185.43" x2="-131" y1="387.57" y2="370" gradientUnits="userSpaceOnUse" xlink:href="#b"/>
  <linearGradient id="p" x1="-472.61" x2="-445.06" y1="346.21" y2="393.66" gradientUnits="userSpaceOnUse" xlink:href="#b"/>
  <linearGradient id="o" x1="-430.23" x2="-378.19" y1="395.24" y2="435.66" gradientUnits="userSpaceOnUse" xlink:href="#f"/>
  <linearGradient id="n" x1="-201.13" x2="-55.694" y1="309" y2="354.7" gradientUnits="userSpaceOnUse" xlink:href="#a"/>
  <linearGradient id="m" x1="-64.997" x2="-7.8789" y1="430.75" y2="422.79" gradientUnits="userSpaceOnUse" xlink:href="#c"/>
  <linearGradient id="l" x1="-362.76" x2="-343.78" y1="90.066" y2="169.42" gradientTransform="matrix(.43846 .15461 -.15461 .43846 280.09 380.21)" gradientUnits="userSpaceOnUse" xlink:href="#g"/>
  <radialGradient id="e" cx="-598.77" cy="257.43" r="34.448" gradientTransform="matrix(.9744 .48632 -.36218 .72567 77.91 363.46)" gradientUnits="userSpaceOnUse">
   <stop stop-color="#f00" offset="0"/>
   <stop stop-color="#b10000" offset="1"/>
  </radialGradient>
  <radialGradient id="d" cx="-790.25" cy="241.92" r="10.326" gradientTransform="matrix(1.3392 .0288 -.0237 .79613 275.08 71.913)" gradientUnits="userSpaceOnUse">
   <stop stop-color="#fff" offset="0"/>
   <stop stop-color="#fff" stop-opacity="0" offset="1"/>
  </radialGradient>
  <radialGradient id="k" cx="-740.27" cy="404.48" r="174.76" gradientTransform="matrix(.39599 .15116 -.08475 .22202 262.72 543.61)" gradientUnits="userSpaceOnUse" xlink:href="#a"/>
  <radialGradient id="j" cx="-869.09" cy="370.97" r="164.33" gradientTransform="matrix(.22198 .42697 -.74155 .38553 305.24 665.86)" gradientUnits="userSpaceOnUse" xlink:href="#c"/>
  <radialGradient id="i" cx="-334.36" cy="278.27" r="174.76" gradientTransform="matrix(.84913 .3319 -.18609 .47609 1.3394 285.34)" gradientUnits="userSpaceOnUse" xlink:href="#a"/>
  <radialGradient id="h" cx="-869.09" cy="370.97" r="164.33" gradientTransform="matrix(.22198 .42697 -.74155 .38553 479.87 598.39)" gradientUnits="userSpaceOnUse" xlink:href="#c"/>
 </defs>
 <g transform="matrix(.99423 -.10723 .10723 .99423 198.39 -231.65)" stroke="#000" stroke-linejoin="round">
  <g transform="matrix(.15225 .43928 .43928 -.15225 -151.14 690.99)">
   <path d="m-206.78 340.31a20.002 20.002 0 0 0 -6.8438 39.062c40.405 13.542 75.727 23.313 105.5 55.594a20.002 20.002 0 1 0 29.375 -27.125c-37.808-40.992-83.156-53.335-122.16-66.406a20.002 20.002 0 0 0 -5.875 -1.125z" fill="url(#w)" stroke-width="12.438"/>
   <path d="m-60.306 426.63-23.607 3.6454-6.3793 21.174-38.688-27.013c9.9925-21.797 18.008-25.123 40.606-33.609l28.068 35.803z" stroke-linecap="square" stroke-width="11.056"/>
  </g>
  <path d="m-99.698 542.88a9.2993 9.2993 0 0 0 -0.65342 0.0488c-18.843 1.4918-42.376 3.2592-59.14 19.199a9.2993 9.2993 0 1 0 12.806 13.483c10.592-10.071 29.301-12.689 47.804-14.154a9.2993 9.2993 0 0 0 -0.8163 -18.576z" fill="url(#v)" stroke-width="5.7826"/>
  <path d="m18.126 513.47c0.5328-1.1159 0.65212-2.6747 0.32511-4.2478s-1.0659-2.9947-2.0134-3.874c-6.714-6.3832-13.744-7.3569-19.64-4.2795s-10.823 9.9535-14.294 19.294c-0.58562 1.4392-0.53341 3.4618 0.1362 5.2767s1.8502 3.1336 3.08 3.4404 2.3132-0.44734 2.8266-1.9672c2.9795-8.019 7.1704-13.612 11.639-15.944s9.055-1.6443 13.805 2.8714c1.524 1.484 3.27 1.2436 4.1358-0.56941z" fill="#784421" fill-rule="evenodd" stroke-linecap="round" stroke-width="5.2686"/>
  <path d="m-140.98 510.77 30.962 15.907c6.3523-8.755 18.003-21.407 38.893-26.057 22.686-5.05 34.167-2.5836 48.481 4.8411 42.012 21.791 15.437 52.001 7.1592 58.336-11.237 8.0477-36.035 3.5203-47.001 9.1449-17.254 8.8497-38.992 4.2542-50.71-9.7657-5.1883-6.2074-5.5696-14.396-4.6982-22.44l-40.416-12.981z" fill="url(#k)" stroke-linecap="round" stroke-width="5.2686"/>
  <path d="m-166.12 587.67 0.70945-11.083-8.974-5.0169 16.139-14.859c8.895 6.7198 9.6019 10.692 11.191 21.802l-19.066 9.1567z" stroke-linecap="square" stroke-width="5.1401"/>
  <path d="m-99.637 552.34a9.2993 9.2993 0 0 0 -4.1754 1.1229c-16.131 8.4374-34.929 22.203-38.637 45.116a9.2997 9.2997 0 1 0 18.359 2.9775c2.2665-14.005 14.95-24.32 28.894-31.613a9.2993 9.2993 0 0 0 -4.4408 -17.603z" fill="url(#u)" stroke-width="5.7826"/>
  <path d="m-130.52 616.41-5.7859-9.479-10.228 1.0488 4.6741-21.433c11.141 0.39037 14.002 3.2356 21.685 11.416l-10.346 18.448z" stroke-linecap="square" stroke-width="5.1401"/>
  <g transform="matrix(.44257 .14241 .14241 -.44257 18.083 712.57)">
   <path d="m-132.09 303.72c-23.597 0.93316-46.192 6.3586-65.094 14.25a20.002 20.002 0 1 0 15.406 36.906c28.018-11.698 72.862-15.802 104.75-1.875a20.002 20.002 0 1 0 16 -36.656c-22.883-9.9942-47.466-13.558-71.062-12.625z" fill="url(#t)" stroke-width="12.438"/>
   <path d="m-26.808 325.73-20.017 13.035 2.8968 21.923-46.375-8.7042c0.14003-23.978 6.0777-30.307 23.183-47.339l40.312 21.085z" stroke-linecap="square" stroke-width="11.056"/>
  </g>
 </g>
 <g transform="matrix(.99423 -.10723 .10723 .99423 185.7 -222.05)">
  <path d="m-137.07 410.7c-7.5618-5.4848-33.836-34.157-39.746-22.393-6.8921 13.718-3.5756 30.708 3.4247 39.391 6.2302 7.7273 12.24 1.8253 21.997 4.0652" fill="#784421" stroke="#000" stroke-linecap="square" stroke-width="5.7826"/>
  <path d="m-84.469 499.77c-0.58927 0.88149 4.196 4.2074 8.7709 5.3384-2.9995 3.1605-9.9087 2.3258-12.195 1.9934 1.7136 1.9815 5.3051 7.1657 10.263 9.2387-5.904 4.3359-14.519-2.0482-16.724-2.8494 0.37447 3.2698 0.83797 7.8962 5.4306 11.862-8.4936 2.198-13.571-6.3303-14.959-5.3977-13.912 9.3525-31.352 12.954-50.57 13.149-12.232 0.12408-25.747-2.2314-36.418-5.6385-1.4276-0.4558-5.8316 8.5597-6.3807 11.185-4.6386-3.5246-0.60296-12.257-3.5025-15.225-5.8034 2.4096-5.5068 7.6738-7.736 11.742-5.1776-5.6781-1.686-13.809-4.3152-16.315-3.8284 1.1038-8.3342 9.8078-10.205 13.842-3.0728-4.2884 0.17285-15.823-0.87064-17.31-8.2854-8.7622-11.01-8.8445-1.9476-31.333 4.4416-11.022 25.515-21.067 31.714-31.105 20.489-33.177 39.713-62.131 79.245-46.049s51.568 61.204 30.399 92.872h5e-5z" fill="url(#j)" stroke="#000" stroke-linecap="round" stroke-linejoin="round" stroke-width="5.7826"/>
  <path d="m-139.5 410.63-0.91986-24.025s21.906 11.805 39.986 14.47c29.201 4.3044 49.2-11.126 61.509-35.747 3.6196-7.2397 9.271-40.794-13.697-65.349-13.176-14.087-50.818-45.946-70.359-29.477-8.5827 7.2333 39.434 40.118 46.978 55.793 5.428 11.278 5.5594 35.518-4.6535 36.677-3.0644 0.34782-5.9251-4.6143-8.8775-17.072-3.0219-12.751-19.582-23.982-25.005-20.044-5.9107 4.2923 7.7749 12.127 11.13 23.47 4.1412 14.002 2.8199 20.844-4.1791 21.091-15.172 0.53635-15.581-34.562-28.418-30.366-10.496 3.4311 12.808 25.487-0.0999 28.36-15.913 3.542-4.1301-30.535-16.916-27.317-14.139 3.559 1.7885 31.945-10.553 33.638-14.309 1.9629-5.5454-63.609-19.23-58.496-17.025 6.3624-10.538 77.287 13.79 79.224 20.646 1.6434 21.475-10.457 21.475-10.457l-4.727 24.647c1.246 7.0855 13.483 7.635 12.767 0.97838z" fill="#666" fill-rule="evenodd" stroke="#000" stroke-linecap="square" stroke-width="5.1401"/>
  <path d="m-208.13 460.88c0.95299 6.2264 5.4016 4.7302 9.2863 2.3817" fill="none" stroke="#000" stroke-linecap="square" stroke-width="5.285"/>
  <path d="m-99.633 431.16 12.369-20.867s12.247 21.01 26.23 32.339c22.585 18.297 48.115 15.218 72.11 0.47737 7.0557-4.3344 30.255-30.001 24.082-62.373-3.5414-18.571-18.248-64.504-43.956-60.314-11.291 1.8405 11.716 53.846 9.5771 70.943-1.5387 12.3-14.699 32.955-24.057 28.819-2.8079-1.241-2.5343-6.89 1.7649-18.951 4.4003-12.345-3.5943-30.188-10.382-29.562-7.3987 0.68226 9.2e-4 14.198-3.3444 25.515-4.1296 13.969-9.0041 19.118-15.118 15.819-13.253-7.1514 5.6157-37.168-7.6468-40.04-10.843-2.348-3.0158 28.07-15.614 24.038-15.531-4.9698 13.191-28.006 0.50815-31.683-14.025-4.066-15.963 28.03-27.432 23.28-13.296-5.5069 30.092-56.808 15.604-59.326-18.025-3.132-51.318 60.362-31.6 74.204 16.735 11.747 24.068 1.8854 24.068 1.8854l-17.533 18.564c-2.8154 6.6429 7.3355 13.245 10.369 7.2322z" fill="#b3b3b3" fill-rule="evenodd" stroke="#000" stroke-linecap="square" stroke-width="5.1401"/>
  <path d="m-230.48 479.63c-2.9799-0.9933-11.608 12.89-0.98679 17.583 4.9602 2.1918 7.847-3.606 7.847-3.606s-1.1814 6.5089 4.1357 12.161c4.744 5.0432 11.242 5.8964 15.8 6.1269 6.6622 0.33687 15.447-4.1172 11.673-10.722" fill="url(#s)" stroke="#000" stroke-linecap="square" stroke-width="5.7826"/>
  <path d="m-151 477.1c-5.252 3.5157-10.334-0.76222-14.109-5.2032" fill="none" stroke="#000" stroke-linecap="square" stroke-width="6.2194"/>
  <g transform="matrix(.43846 .15461 -.15461 .43846 86.324 458.11)">
   <path d="m-560.23 268.95c2.0052-11.323-9.6805-22.804-26.084-25.626s-31.344 4.0779-33.349 15.401 8.832 27.595 25.235 30.417 32.192-8.8695 34.198-20.193z" fill="url(#e)" stroke="#000" stroke-linecap="square" stroke-width="12.438"/>
   <path transform="matrix(1 0 0 1.1765 190.2 -22.697)" d="m-778.21 242.12c0 4.1256-4.6233 7.4701-10.326 7.4701s-10.326-3.3445-10.326-7.4701 4.6233-7.4701 10.326-7.4701 10.326 3.3445 10.326 7.4701z" fill="url(#d)"/>
  </g>
  <path d="m-85.04 435.28c10.261 2.4668 53 4.4955 49.186 17.346-4.4478 14.986-19.7 23.829-31.857 23.999-10.819 0.15089-11.409-8.7927-21.082-15.268" fill="url(#r)" stroke="#000" stroke-linecap="square" stroke-width="5.7826"/>
 </g>
 <g transform="matrix(.43027 .17612 -.17612 .43027 674.2 192.4)" stroke="#000" stroke-linejoin="round">
  <g transform="matrix(.31994 .94744 .94744 -.31994 -476.58 664.93)">
   <path d="m-206.78 340.31a20.002 20.002 0 0 0 -6.8438 39.062c40.405 13.542 75.727 23.313 105.5 55.594a20.002 20.002 0 1 0 29.375 -27.125c-37.808-40.992-83.156-53.335-122.16-66.406a20.002 20.002 0 0 0 -5.875 -1.125z" fill="url(#q)" stroke-width="12.438"/>
   <path d="m-60.306 426.63-23.607 3.6454-6.3793 21.174-38.688-27.013c9.9925-21.797 18.008-25.123 40.606-33.609l28.068 35.803z" stroke-linecap="square" stroke-width="11.056"/>
  </g>
  <path d="m-363.41 347.25a20.002 20.002 0 0 0 -1.4062 0.0937c-40.555 2.8859-91.2 6.284-127.53 40.281a20.002 20.002 0 1 0 27.312 29.219c22.955-21.48 63.239-26.791 103.06-29.625a20.002 20.002 0 0 0 -1.4375 -39.969z" fill="url(#p)" stroke-width="12.438"/>
  <path d="m-109.48 286.01c1.1651-2.3909 1.4484-5.7417 0.77203-9.1307s-2.2412-6.4595-4.2642-8.3669c-14.331-13.844-29.435-16.059-42.171-9.5412s-23.45 21.223-31.074 41.253c-1.2842 3.0854-1.2066 7.4367 0.20255 11.352s3.9258 6.7717 6.5656 7.4525 4.9831-0.92252 6.1134-4.1827c6.5459-17.197 15.656-29.155 25.308-34.095s19.504-3.3815 29.643 6.4124c3.2526 3.2179 7.0119 2.7308 8.9052-1.1539z" fill="#784421" fill-rule="evenodd" stroke-linecap="round" stroke-width="11.332"/>
  <path d="m-451.64 277.48 66.323 34.744c13.813-18.722 39.088-45.735 84.099-55.38 48.88-10.473 73.532-4.9716 104.19 11.243 89.988 47.589 32.312 112.11 14.399 125.6-24.307 17.117-77.566 6.9543-101.25 18.864-37.262 18.739-83.938 8.4822-108.9-21.873-11.053-13.44-11.733-31.06-9.7206-48.346l-86.707-28.614z" fill="url(#i)" stroke-linecap="round" stroke-width="11.332"/>
  <path d="m-507.04 442.45 1.7158-23.825-19.216-10.944 34.967-31.682c19.017 14.606 20.469 23.161 23.698 47.084l-41.164 19.368z" stroke-linecap="square" stroke-width="11.056"/>
  <path d="m-363.44 367.59a20.002 20.002 0 0 0 -9 2.3438c-34.84 17.871-75.507 47.156-83.875 96.375a20.003 20.003 0 1 0 39.438 6.7188c5.1149-30.084 32.573-52.053 62.688-67.5a20.002 20.002 0 0 0 -9.25 -37.938z" fill="url(#o)" stroke-width="12.438"/>
  <path d="m-430.97 504.87-12.282-20.487-22.016 2.0806 10.421-46.02c23.956 1.0305 30.06 7.1991 46.445 24.926l-22.568 39.501z" stroke-linecap="square" stroke-width="11.056"/>
  <g transform="matrix(.94946 .31388 .31388 -.94946 -112.98 714.23)">
   <path d="m-132.09 303.72c-23.597 0.93316-46.192 6.3586-65.094 14.25a20.002 20.002 0 1 0 15.406 36.906c28.018-11.698 72.862-15.802 104.75-1.875a20.002 20.002 0 1 0 16 -36.656c-22.883-9.9942-47.466-13.558-71.062-12.625z" fill="url(#n)" stroke-width="12.438"/>
   <path d="m-26.808 325.73-20.017 13.035 2.8968 21.923-46.375-8.7042c0.14003-23.978 6.0777-30.307 23.183-47.339l40.312 21.085z" stroke-linecap="square" stroke-width="11.056"/>
  </g>
 </g>
 <g transform="matrix(.99877 .0495 -.0495 .99877 401.36 -198.79)">
  <path d="m37.561 343.23c-7.5618-5.4848-33.836-34.157-39.746-22.393-6.8921 13.718-3.5756 30.708 3.4247 39.391 6.2302 7.7273 12.24 1.8253 21.997 4.0652" fill="#784421" stroke="#000" stroke-linecap="square" stroke-width="5.7826"/>
  <path d="m90.165 432.3c-0.58927 0.88149 4.196 4.2074 8.7709 5.3384-2.9995 3.1605-9.9087 2.3258-12.195 1.9934 1.7136 1.9815 5.3051 7.1657 10.263 9.2387-5.904 4.3359-14.519-2.0482-16.724-2.8494 0.37447 3.2698 0.83797 7.8962 5.4306 11.862-8.4936 2.198-13.571-6.3303-14.959-5.3977-13.912 9.3525-31.352 12.954-50.57 13.149-12.232 0.12408-25.747-2.2314-36.418-5.6385-1.4276-0.4558-5.8316 8.5597-6.3807 11.185-4.6386-3.5246-0.60296-12.257-3.5025-15.225-5.8034 2.4096-5.5068 7.6738-7.736 11.742-5.1776-5.6781-1.686-13.809-4.3152-16.315-3.8284 1.1038-8.3342 9.8078-10.205 13.842-3.0728-4.2884 0.17285-15.823-0.87064-17.31-8.2854-8.7622-11.01-8.8445-1.9476-31.333 4.4416-11.022 25.515-21.067 31.714-31.105 20.489-33.177 39.713-62.131 79.245-46.049s51.568 61.204 30.399 92.872h5e-5z" fill="url(#h)" stroke="#000" stroke-linecap="round" stroke-linejoin="round" stroke-width="5.7826"/>
  <path d="m35.133 343.16-0.91986-24.025s21.906 11.805 39.986 14.47c29.201 4.3044 49.2-11.126 61.509-35.747 3.6196-7.2397 9.271-40.794-13.697-65.349-13.176-14.087-50.818-45.946-70.359-29.477-8.5827 7.2333 39.434 40.118 46.978 55.793 5.428 11.278 5.5594 35.518-4.6535 36.677-3.0644 0.34782-5.9251-4.6143-8.8775-17.072-3.0219-12.751-19.582-23.982-25.005-20.044-5.9107 4.2923 7.7749 12.127 11.13 23.47 4.1412 14.002 2.8199 20.844-4.1791 21.091-15.172 0.53635-15.581-34.562-28.418-30.366-10.496 3.4311 12.808 25.487-0.0999 28.36-15.913 3.542-4.1301-30.535-16.916-27.317-14.139 3.559 1.7885 31.945-10.553 33.638-14.309 1.9629-5.5454-63.609-19.23-58.496-17.025 6.3624-10.538 77.287 13.79 79.224 20.646 1.6434 21.475-10.457 21.475-10.457l-4.727 24.647c1.246 7.0855 13.483 7.635 12.767 0.97838z" fill="#666" fill-rule="evenodd" stroke="#000" stroke-linecap="square" stroke-width="5.1401"/>
  <path d="m75.001 363.68 12.369-20.867s12.247 21.01 26.23 32.339c22.585 18.297 48.115 15.218 72.11 0.47737 7.0557-4.3344 30.255-30.001 24.082-62.373-3.5414-18.571-18.248-64.504-43.956-60.314-11.291 1.8405 11.716 53.846 9.5771 70.943-1.5387 12.3-14.699 32.955-24.057 28.819-2.8079-1.241-2.5343-6.89 1.7649-18.951 4.4003-12.345-3.5943-30.188-10.382-29.562-7.3987 0.68226 9.2e-4 14.198-3.3444 25.515-4.1296 13.969-9.0041 19.118-15.118 15.819-13.253-7.1514 5.6157-37.168-7.6468-40.04-10.843-2.348-3.0158 28.07-15.614 24.038-15.531-4.9698 13.191-28.006 0.50815-31.683-14.025-4.066-15.963 28.03-27.432 23.28-13.296-5.5069 30.092-56.808 15.604-59.326-18.025-3.132-51.318 60.362-31.6 74.204 16.735 11.747 24.068 1.8854 24.068 1.8854l-17.533 18.564c-2.8154 6.6429 7.3355 13.245 10.369 7.2322z" fill="#b3b3b3" fill-rule="evenodd" stroke="#000" stroke-linecap="square" stroke-width="5.1401"/>
  <path d="m-55.851 412.16c-2.9799-0.9933-11.608 12.89-0.98679 17.583 4.9602 2.1918 7.847-3.606 7.847-3.606s-1.1814 6.5089 4.1357 12.161c4.744 5.0432 11.242 5.8964 15.8 6.1269 6.6622 0.33687 15.447-4.1172 11.673-10.722" fill="url(#m)" stroke="#000" stroke-linecap="square" stroke-width="5.7826"/>
  <g transform="matrix(.43846 .15461 -.15461 .43846 260.96 390.64)">
   <path d="m-560.23 268.95c2.0052-11.323-9.6805-22.804-26.084-25.626s-31.344 4.0779-33.349 15.401 8.832 27.595 25.235 30.417 32.192-8.8695 34.198-20.193z" fill="url(#e)" stroke="#000" stroke-linecap="square" stroke-width="12.438"/>
   <path transform="matrix(1 0 0 1.1765 190.2 -22.697)" d="m-778.21 242.12c0 4.1256-4.6233 7.4701-10.326 7.4701s-10.326-3.3445-10.326-7.4701 4.6233-7.4701 10.326-7.4701 10.326 3.3445 10.326 7.4701z" fill="url(#d)"/>
  </g>
  <path d="m89.594 367.81c10.261 2.4668 53 4.4955 49.186 17.346-4.4478 14.986-19.7 23.829-31.857 23.999-10.819 0.15089-11.409-8.7927-21.082-15.268" fill="url(#l)" stroke="#000" stroke-linecap="square" stroke-width="5.7826"/>
  <g transform="translate(-243.79 -72.236)" fill="none" stroke="#000" stroke-linecap="square" stroke-width="5.7826">
   <path d="m215.54 454.46c-2e-3 -6e-3 6.1772-7.3521 10.602-4.1577 3.2712 2.3618 1.5736 8.7374 1.5736 8.7374"/>
   <path d="m262.89 479.89s5.0245-7.6971 9.7052-5.4817c5.8003 2.7454 3.9212 10.578 3.9212 10.578"/>
  </g>
 </g>
</svg>
